<svg width="20" height="20" viewBox="0 0 20 20" fill="none" xmlns="http://www.w3.org/2000/svg">
<path fill-rule="evenodd" clip-rule="evenodd" d="M5.00008 3.33329C4.07961 3.33329 3.33341 4.07948 3.33341 4.99996C3.33341 5.92043 4.07961 6.66663 5.00008 6.66663C5.92056 6.66663 6.66675 5.92043 6.66675 4.99996C6.66675 4.07948 5.92056 3.33329 5.00008 3.33329ZM1.66675 4.99996C1.66675 3.15901 3.15913 1.66663 5.00008 1.66663C6.84103 1.66663 8.33342 3.15901 8.33342 4.99996C8.33342 6.55316 7.2711 7.85824 5.83342 8.22828V17.5C5.83342 17.9602 5.46032 18.3333 5.00008 18.3333C4.53984 18.3333 4.16675 17.9602 4.16675 17.5V8.22828C2.72906 7.85824 1.66675 6.55316 1.66675 4.99996ZM10.0001 4.99996C10.0001 4.53972 10.3732 4.16663 10.8334 4.16663H13.3334C13.9965 4.16663 14.6323 4.43002 15.1012 4.89886C15.57 5.3677 15.8334 6.00358 15.8334 6.66663V11.7716C17.2711 12.1417 18.3334 13.4468 18.3334 15C18.3334 16.8409 16.841 18.3333 15.0001 18.3333C13.1591 18.3333 11.6667 16.8409 11.6667 15C11.6667 13.4468 12.7291 12.1417 14.1667 11.7716V6.66663C14.1667 6.44561 14.079 6.23365 13.9227 6.07737C13.7664 5.92109 13.5544 5.83329 13.3334 5.83329H10.8334C10.3732 5.83329 10.0001 5.4602 10.0001 4.99996ZM15.0001 13.3333C14.0796 13.3333 13.3334 14.0795 13.3334 15C13.3334 15.9204 14.0796 16.6666 15.0001 16.6666C15.9206 16.6666 16.6667 15.9204 16.6667 15C16.6667 14.0795 15.9206 13.3333 15.0001 13.3333Z" fill="currentColor"/>
</svg>
