<svg width="33" height="32" viewBox="0 0 33 32" fill="none" xmlns="http://www.w3.org/2000/svg">
    <path fill-rule="evenodd" clip-rule="evenodd" d="M16.5 3.99998C9.87262 3.99998 4.50004 9.37256 4.50004 16C4.50004 22.6274 9.87262 28 16.5 28C23.1275 28 28.5 22.6274 28.5 16C28.5 9.37256 23.1275 3.99998 16.5 3.99998ZM1.83337 16C1.83337 7.8998 8.39986 1.33331 16.5 1.33331C24.6002 1.33331 31.1667 7.8998 31.1667 16C31.1667 24.1002 24.6002 30.6666 16.5 30.6666C8.39986 30.6666 1.83337 24.1002 1.83337 16ZM11.5572 11.0572C12.0779 10.5365 12.9222 10.5365 13.4428 11.0572L16.5 14.1144L19.5572 11.0572C20.0779 10.5365 20.9221 10.5365 21.4428 11.0572C21.9635 11.5779 21.9635 12.4221 21.4428 12.9428L18.3857 16L21.4428 19.0572C21.9635 19.5779 21.9635 20.4221 21.4428 20.9428C20.9221 21.4635 20.0779 21.4635 19.5572 20.9428L16.5 17.8856L13.4428 20.9428C12.9222 21.4635 12.0779 21.4635 11.5572 20.9428C11.0365 20.4221 11.0365 19.5779 11.5572 19.0572L14.6144 16L11.5572 12.9428C11.0365 12.4221 11.0365 11.5779 11.5572 11.0572Z" fill="currentColor"/>
</svg>
