<svg width="24" height="24" viewBox="0 0 24 24" fill="none" xmlns="http://www.w3.org/2000/svg">
<path fill-rule="evenodd" clip-rule="evenodd" d="M18.3631 4.78539C16.4561 3.05192 13.5439 3.05192 11.6369 4.78539C11.5531 4.86148 11.4542 4.96 11.2071 5.20711L6.17574 10.2385C6.0831 10.3311 6.03704 10.3775 6.005 10.4126C6.00416 10.4136 6.00335 10.4144 6.00258 10.4153C6.00252 10.4164 6.00247 10.4176 6.00241 10.4189C6.00024 10.4664 6 10.5318 6 10.6628V16.5858L15.2929 7.2929C15.6834 6.90238 16.3166 6.90238 16.7071 7.2929C17.0976 7.68343 17.0976 8.31659 16.7071 8.70712L11.4142 14H17.5858L18.7929 12.7929C19.04 12.5458 19.1385 12.4469 19.2146 12.3632C20.9481 10.4561 20.9481 7.54391 19.2146 5.63687C19.1385 5.55316 19.04 5.45423 18.7929 5.20712C18.5458 4.96 18.4469 4.86148 18.3631 4.78539ZM18.7073 15.7069L20.2296 14.1846C20.4471 13.9671 20.5822 13.8321 20.6946 13.7084C23.1214 11.0386 23.1214 6.96146 20.6946 4.29161C20.5822 4.16797 20.4472 4.03295 20.2297 3.81548L20.1845 3.77033C19.9671 3.55284 19.832 3.41781 19.7084 3.30543C17.0385 0.878577 12.9615 0.878577 10.2916 3.30543C10.1679 3.41783 10.0329 3.55287 9.81539 3.77041L4.76152 8.82427C4.7498 8.83599 4.73773 8.848 4.72537 8.8603C4.59072 8.99423 4.42117 9.16287 4.29472 9.36923C4.18506 9.54817 4.10425 9.74326 4.05526 9.94733C3.99876 10.1827 3.9994 10.4218 3.99991 10.6117C3.99995 10.6292 4 10.6462 4 10.6628L4 17.4319C3.99997 17.6843 3.99994 17.9301 4.01695 18.1382C4.0264 18.254 4.04237 18.3803 4.07378 18.512L1.29289 21.2929C0.902369 21.6834 0.902369 22.3166 1.29289 22.7071C1.68342 23.0976 2.31658 23.0976 2.70711 22.7071L5.488 19.9262C5.61972 19.9576 5.74602 19.9736 5.86177 19.9831C6.06992 20.0001 6.31571 20 6.56808 20L13.3373 20C13.3538 20 13.3709 20.0001 13.3883 20.0001C13.5782 20.0006 13.8173 20.0012 14.0527 19.9447C14.2568 19.8958 14.4518 19.8149 14.6308 19.7053C14.8371 19.5788 15.0058 19.4093 15.1397 19.2747C15.152 19.2623 15.164 19.2502 15.1757 19.2385L18.7073 15.7069C18.7074 15.7068 18.7072 15.7071 18.7073 15.7069ZM15.5858 16H9.41421L7.41421 18H13.3373C13.4683 18 13.5336 17.9998 13.5811 17.9976C13.5824 17.9975 13.5836 17.9975 13.5847 17.9974C13.5856 17.9967 13.5865 17.9959 13.5874 17.995C13.6225 17.963 13.6689 17.9169 13.7615 17.8243L15.5858 16Z" fill="currentColor"/>
</svg>
