<svg width="24" height="24" viewBox="0 0 24 24" fill="none" xmlns="http://www.w3.org/2000/svg">
    <path d="M4 10.6297C4 9.77448 4 9.34688 4.10958 8.95264C4.20666 8.6034 4.36622 8.27465 4.58053 7.98231C4.82246 7.65231 5.15841 7.38775 5.83029 6.85864L9.0303 4.33864C10.0914 3.503 10.622 3.08517 11.209 2.92473C11.7268 2.78317 12.2732 2.78317 12.791 2.92473C13.378 3.08517 13.9086 3.503 14.9697 4.33864L18.1697 6.85864C18.8416 7.38775 19.1775 7.65231 19.4195 7.98231C19.6338 8.27465 19.7933 8.6034 19.8904 8.95264C20 9.34688 20 9.77448 20 10.6297V15.2C20 16.8802 20 17.7202 19.673 18.362C19.3854 18.9265 18.9265 19.3854 18.362 19.673C17.7202 20 16.8802 20 15.2 20H8.8C7.11984 20 6.27976 20 5.63803 19.673C5.07354 19.3854 4.6146 18.9265 4.32698 18.362C4 17.7202 4 16.8802 4 15.2V10.6297Z" stroke="currentColor" stroke-width="2" stroke-linecap="round" stroke-linejoin="round"/>
    <path d="M15 13C15 13.394 14.9224 13.7841 14.7716 14.1481C14.6209 14.512 14.3999 14.8427 14.1213 15.1213C13.8427 15.3999 13.512 15.6209 13.1481 15.7716C12.7841 15.9224 12.394 16 12 16C11.606 16 11.2159 15.9224 10.8519 15.7716C10.488 15.6209 10.1573 15.3999 9.87868 15.1213C9.6001 14.8427 9.37913 14.512 9.22836 14.1481C9.0776 13.7841 9 13.394 9 13" stroke="currentColor" stroke-width="2" stroke-linecap="round" stroke-linejoin="round"/>
</svg>
