<svg width="25" height="25" viewBox="0 0 25 25" fill="none" xmlns="http://www.w3.org/2000/svg">
<path fill-rule="evenodd" clip-rule="evenodd" d="M14.3918 0.8487C13.1584 0.337848 11.7727 0.337848 10.5394 0.8487L5.61323 2.88918C4.37992 3.40003 3.40005 4.3799 2.88919 5.61321L0.84872 10.5393C0.337861 11.7727 0.337862 13.1584 0.84872 14.3917L2.88919 19.3178C3.40005 20.5511 4.37992 21.531 5.61323 22.0419L10.5394 24.0823C11.7727 24.5932 13.1584 24.5932 14.3918 24.0823L19.3179 22.0419C20.5512 21.531 21.5311 20.5511 22.042 19.3178L24.0824 14.3917C24.5933 13.1584 24.5933 11.7727 24.0824 10.5393L22.042 5.61321C21.5311 4.37989 20.5512 3.40003 19.3179 2.88918L14.3918 0.8487ZM7.85067 16.7609V18.388L10.6247 18.2932V16.3659C10.6247 15.6813 10.63 14.9705 10.6405 14.2332C11.25 13.6645 11.8384 13.0958 12.4058 12.5271C12.7001 13.1906 12.989 13.8699 13.2727 14.565C13.5564 15.2601 13.8139 15.9394 14.0451 16.6029C14.2867 17.2558 14.4917 17.8562 14.6598 18.4038C15.2482 18.4038 15.8156 18.3775 16.3621 18.3248C16.9085 18.2827 17.4601 18.2142 18.017 18.1195C17.6703 17.2348 17.292 16.3448 16.8822 15.4496C16.4829 14.5439 16.0678 13.6698 15.637 12.8272C15.2062 11.9742 14.7859 11.1895 14.3761 10.4734C15.574 9.16745 16.6353 7.88784 17.56 6.63456L15.4163 6.16063C14.6177 7.38232 13.8297 8.51448 13.0521 9.55713C12.2745 10.5998 11.4759 11.5845 10.6563 12.5113C10.6668 11.416 10.6773 10.3417 10.6878 9.28857C10.7088 8.22486 10.7351 7.27173 10.7666 6.42919L7.92948 6.3344C7.91897 6.60823 7.90846 7.03477 7.89795 7.61401C7.88744 8.19326 7.87694 8.86729 7.86643 9.63611V12.0532C7.86643 12.8957 7.86118 13.7224 7.85067 14.5334V16.7609Z" fill="currentColor"/>
</svg>
