<svg width="20" height="20" viewBox="0 0 20 20" fill="none" xmlns="http://www.w3.org/2000/svg">
<path fill-rule="evenodd" clip-rule="evenodd" d="M2.49963 9.58329C2.49963 5.21104 6.04404 1.66663 10.4163 1.66663C14.7886 1.66663 18.333 5.21104 18.333 9.58329C18.333 13.9555 14.7886 17.5 10.4163 17.5C9.41494 17.5 8.45513 17.3136 7.57101 16.973C7.49522 16.9438 7.45131 16.927 7.41894 16.9153C7.41497 16.9139 7.41155 16.9127 7.40863 16.9117C7.40757 16.9117 7.40644 16.9118 7.40524 16.9119C7.37889 16.914 7.34292 16.9176 7.27412 16.9247L3.0066 17.3659C2.99722 17.3668 2.9878 17.3678 2.97837 17.3688C2.79988 17.3873 2.61367 17.4066 2.45793 17.4084C2.30314 17.4102 2.02415 17.4014 1.75665 17.2382C1.44308 17.047 1.22951 16.7275 1.17266 16.3646C1.12416 16.055 1.22273 15.7939 1.28358 15.6515C1.34481 15.5083 1.43382 15.3437 1.51915 15.1858L2.8957 12.6379C2.95525 12.5276 2.98708 12.4683 3.0085 12.4242C3.00963 12.4218 3.01067 12.4197 3.01163 12.4176C3.01002 12.4119 3.00807 12.405 3.00572 12.3971C2.98768 12.336 2.95992 12.2532 2.91276 12.1133C2.64462 11.3178 2.49963 10.4666 2.49963 9.58329ZM10.4163 3.33329C6.96452 3.33329 4.1663 6.13151 4.1663 9.58329C4.1663 10.2833 4.28105 10.9548 4.49212 11.581C4.49883 11.6009 4.50574 11.6212 4.51279 11.6419C4.58041 11.8407 4.65984 12.0741 4.67656 12.2854C4.6918 12.478 4.67791 12.6408 4.63027 12.8279C4.57816 13.0327 4.47227 13.2273 4.38639 13.3852C4.37807 13.4005 4.36993 13.4155 4.36205 13.4301L3.14889 15.6756L7.10275 15.2669C7.11172 15.266 7.12093 15.265 7.13035 15.264C7.22952 15.2536 7.35241 15.2407 7.47302 15.2453C7.58326 15.2495 7.67615 15.2619 7.78364 15.2866C7.90164 15.3138 8.02966 15.3634 8.13762 15.4052C8.14869 15.4095 8.15956 15.4137 8.17018 15.4178C8.86615 15.6859 9.62303 15.8333 10.4163 15.8333C13.8681 15.8333 16.6663 13.0351 16.6663 9.58329C16.6663 6.13151 13.8681 3.33329 10.4163 3.33329Z" fill="currentColorF"/>
</svg>
