<svg width="161" height="86" viewBox="0 0 161 86" fill="none" xmlns="http://www.w3.org/2000/svg">
<mask id="mask0_25_218" style="mask-type:alpha" maskUnits="userSpaceOnUse" x="32" y="61" width="39" height="25">
<rect x="32.5491" y="61.8242" width="38.2404" height="23.9312" fill="#D9D9D9"/>
</mask>
<g mask="url(#mask0_25_218)">
<g style="mix-blend-mode:darken" opacity="0.5">
<path fill-rule="evenodd" clip-rule="evenodd" d="M160.704 7.72684C160.308 7.30829 159.783 6.97418 159.125 6.82036C158.168 6.59658 157.322 6.8523 156.785 7.08788C156.217 7.33716 155.699 7.6932 155.252 8.05538C154.668 8.52905 153.934 8.77492 152.877 8.86763C152.106 8.93527 151.407 8.91625 150.581 8.8938C150.117 8.88117 149.612 8.86745 149.032 8.86745C147.651 8.86745 146.532 9.98673 146.532 11.3674C146.532 12.7482 147.651 13.8674 149.032 13.8674C149.332 13.8674 149.69 13.8764 150.082 13.8862C151.064 13.9108 152.262 13.9407 153.314 13.8485C153.519 13.8305 153.728 13.8077 153.94 13.7789C140.131 32.5485 119.547 46.7268 99.3763 58.9066C71.3084 75.8555 37.7296 76.4251 5.32141 76.4251C3.9407 76.4251 2.82141 77.5444 2.82141 78.9251C2.82141 80.3058 3.9407 81.4251 5.32141 81.4251C37.527 81.4251 72.5225 80.9632 101.961 63.1868C121.517 51.3776 142.127 37.3311 156.537 18.6405C156.559 21.3862 156.828 24.4423 158.067 27.0259C158.664 28.2709 160.157 28.7963 161.402 28.1995C162.647 27.6026 163.172 26.1094 162.576 24.8644C161.828 23.3043 161.555 21.1558 161.536 18.5563C161.527 17.2859 161.576 15.9865 161.632 14.6697L161.644 14.3708C161.688 13.3214 161.733 12.2526 161.744 11.2367C162.426 10.0827 162.076 8.58672 160.937 7.85906C160.861 7.81036 160.783 7.76632 160.704 7.72684Z" fill="#41694A"/>
</g>
</g>
<path fill-rule="evenodd" clip-rule="evenodd" d="M158.792 1.74429C158.396 1.32569 157.871 0.991529 157.213 0.837699C156.256 0.613917 155.41 0.869639 154.873 1.10521C154.305 1.35449 153.787 1.71053 153.34 2.07271C152.756 2.54638 152.022 2.79226 150.965 2.88497C150.194 2.9526 149.495 2.93359 148.669 2.91113C148.205 2.8985 147.7 2.88478 147.12 2.88478C145.739 2.88478 144.62 4.00407 144.62 5.38478C144.62 6.76549 145.739 7.88478 147.12 7.88478C147.42 7.88478 147.778 7.89372 148.17 7.90352C149.152 7.9281 150.35 7.95807 151.402 7.86585C151.607 7.84783 151.816 7.82502 152.028 7.79622C138.219 26.5658 117.634 40.7441 97.4642 52.9239C69.3962 69.8728 35.8175 70.4424 3.4093 70.4424C2.02859 70.4424 0.909302 71.5617 0.909302 72.9424C0.909302 74.3231 2.02859 75.4424 3.4093 75.4424C35.6149 75.4424 70.6104 74.9805 100.049 57.2041C119.605 45.3949 140.215 31.3484 154.625 12.6577C154.647 15.4035 154.916 18.4596 156.155 21.0432C156.752 22.2882 158.245 22.8137 159.49 22.2168C160.735 21.6199 161.26 20.1268 160.664 18.8817C159.916 17.3216 159.643 15.1732 159.624 12.5737C159.615 11.3032 159.665 10.0039 159.72 8.68705L159.732 8.38816C159.776 7.33869 159.821 6.26977 159.832 5.25378C160.514 4.09985 160.164 2.60401 159.025 1.87639C158.949 1.82774 158.871 1.78374 158.792 1.74429Z" fill="#F6FFF8"/>
</svg>
