<svg width="45" height="44" viewBox="0 0 45 44" fill="none" xmlns="http://www.w3.org/2000/svg">
<rect x="1.33325" y="1" width="42" height="42" rx="21" fill="#4A3950"/>
<g clip-path="url(#clip0_157_9310)">
<path d="M17.4973 34.4105C16.0438 33.0995 15.6195 30.3447 16.2251 28.3489C17.275 29.6072 18.7299 30.0058 20.2368 30.2308C22.5631 30.578 24.8478 30.4481 27.0088 29.3988C27.256 29.2787 27.4845 29.119 27.7546 28.9572C27.9574 29.5377 28.0102 30.1238 27.9394 30.7203C27.7671 32.1731 27.0345 33.2953 25.8693 34.146C25.4033 34.4862 24.9103 34.7904 24.429 35.1112C22.9506 36.0973 22.5506 37.2535 23.1061 38.9354C23.1193 38.9764 23.1312 39.0174 23.161 39.1173C22.4062 38.784 21.8548 38.2986 21.4347 37.6604C20.9909 36.9869 20.7798 36.2417 20.7687 35.4355C20.7631 35.0432 20.7631 34.6473 20.7097 34.2605C20.5791 33.3175 20.1305 32.8953 19.2854 32.871C18.4181 32.846 17.732 33.3752 17.55 34.2084C17.5362 34.2723 17.516 34.3355 17.4959 34.4098L17.4973 34.4105Z" fill="white"/>
<path d="M10.1875 28.96C10.1875 28.96 14.1617 27.0287 18.147 27.0287L21.1518 17.7526C21.2643 17.304 21.5928 16.9991 21.9636 16.9991C22.3344 16.9991 22.6629 17.304 22.7754 17.7526L25.7802 27.0287C30.5002 27.0287 33.7397 28.96 33.7397 28.96C33.7397 28.96 26.9892 10.6159 26.976 10.5791C26.7822 10.0368 26.4552 9.6875 26.0142 9.6875H17.9137C17.4727 9.6875 17.1589 10.0368 16.9519 10.5791C16.9373 10.6153 10.1875 28.96 10.1875 28.96Z" fill="white"/>
</g>
<rect x="1.33325" y="1" width="42" height="42" rx="21" stroke="#E4E7FF" stroke-width="2"/>
<defs>
<clipPath id="clip0_157_9310">
<rect width="24" height="29.625" fill="white" transform="translate(10 9.6875)"/>
</clipPath>
</defs>
</svg>
