<svg width="44" height="44" viewBox="0 0 44 44" fill="none" xmlns="http://www.w3.org/2000/svg">
<rect x="1" y="1" width="42" height="42" rx="21" fill="#4A3950"/>
<g clip-path="url(#clip0_157_9329)">
<mask id="mask0_157_9329" style="mask-type:luminance" maskUnits="userSpaceOnUse" x="10" y="11" width="24" height="22">
<path d="M34 11H10V32.1191H34V11Z" fill="white"/>
</mask>
<g mask="url(#mask0_157_9329)">
<path d="M16.4862 28.6347H16.2596L15.1284 27.5035V27.2769L16.8577 25.5476H18.0558L18.2155 25.7073V26.9054L16.4862 28.6347Z" fill="#32E6E2"/>
<path d="M15.1284 15.8405V15.6139L16.2596 14.4827H16.4862L18.2155 16.2119V17.41L18.0558 17.5697H16.8577L15.1284 15.8405Z" fill="#32E6E2"/>
<path d="M25.0861 24.9883H23.4404L23.303 24.8508V20.9985C23.303 20.3131 23.0336 19.7819 22.2071 19.7633C21.7817 19.7522 21.2951 19.7633 20.775 19.7837L20.697 19.8636V24.849L20.5595 24.9864H18.9138L18.7764 24.849V18.2681L18.9138 18.1306H22.6176C24.0571 18.1306 25.2236 19.2971 25.2236 20.7366V24.8508L25.0861 24.9883Z" fill="white"/>
<path d="M16.7202 22.5217H10.1375L10 22.3843V20.7349L10.1375 20.5974H16.7202L16.8577 20.7349V22.3843L16.7202 22.5217Z" fill="#32E6E2"/>
<path d="M33.8645 22.5217H27.2817L27.1443 22.3843V20.7349L27.2817 20.5974H33.8645L34.002 20.7349V22.3843L33.8645 22.5217Z" fill="#32E6E2"/>
<path d="M21.0518 16.0745V11.1375L21.1892 11H22.8386L22.9761 11.1375V16.0745L22.8386 16.212H21.1892L21.0518 16.0745Z" fill="#32E6E2"/>
<path d="M21.0518 31.9817V27.0447L21.1892 26.9072H22.8386L22.9761 27.0447V31.9817L22.8386 32.1192H21.1892L21.0518 31.9817Z" fill="#32E6E2"/>
</g>
</g>
<rect x="1" y="1" width="42" height="42" rx="21" stroke="#E4E7FF" stroke-width="2"/>
<defs>
<clipPath id="clip0_157_9329">
<rect width="24" height="21.1875" fill="white" transform="translate(10 11)"/>
</clipPath>
</defs>
</svg>
