<svg width="197" height="197" viewBox="0 0 197 197" fill="none" xmlns="http://www.w3.org/2000/svg">
<path d="M156.096 24.8925L110.05 5.81968C102.715 2.78147 94.4739 2.78146 87.139 5.81968L41.0932 24.8925C33.7583 27.9307 27.9307 33.7582 24.8925 41.0931L5.81968 87.139C2.78147 94.4739 2.78146 102.715 5.81968 110.05L24.8925 156.096C27.9307 163.431 33.7583 169.258 41.0931 172.297L87.139 191.369C94.4739 194.408 102.715 194.408 110.05 191.369L156.096 172.297C163.431 169.258 169.258 163.431 172.297 156.096L191.37 110.05C194.408 102.715 194.408 94.4739 191.37 87.139L172.297 41.0931C169.258 33.7583 163.431 27.9307 156.096 24.8925Z" fill="#E3E3FF" stroke="white" stroke-width="5.40541"/>
<path d="M63.4311 143.722C63.4311 140.592 63.4311 136.46 63.4311 131.324C63.4311 126.188 63.4311 120.53 63.4311 114.351C63.5112 108.172 63.5512 101.873 63.5512 95.453C63.5512 89.0332 63.5512 82.8942 63.5512 77.0362C63.6313 71.1781 63.7113 66.0422 63.7914 61.6286C63.8715 57.215 63.9515 53.965 64.0316 51.8785L85.6492 52.6008C85.4091 59.0206 85.2089 66.283 85.0488 74.388C84.9687 82.4128 84.8886 90.598 84.8086 98.9438C91.0537 91.882 97.1386 84.3788 103.063 76.4343C108.988 68.4898 114.993 59.8632 121.078 50.5544L137.412 54.1656C130.366 63.7151 122.279 73.4651 113.152 83.4159C116.274 88.8727 119.477 94.8511 122.76 101.351C126.042 107.771 129.205 114.432 132.247 121.333C135.37 128.154 138.252 134.935 140.894 141.676C136.651 142.398 132.447 142.919 128.284 143.24C124.121 143.642 119.797 143.842 115.313 143.842C114.032 139.669 112.471 135.095 110.63 130.12C108.868 125.064 106.907 119.888 104.745 114.592C102.583 109.296 100.381 104.12 98.1395 99.0641C93.8159 103.398 89.3323 107.731 84.6885 112.064C84.6084 117.682 84.5684 123.098 84.5684 128.314C84.5684 133.531 84.5684 138.426 84.5684 143L63.4311 143.722Z" fill="#6161AD"/>
</svg>
