<svg width="80" height="80" viewBox="0 0 80 80" fill="none" xmlns="http://www.w3.org/2000/svg">
<path fill-rule="evenodd" clip-rule="evenodd" d="M46.4206 1.27713C42.3095 -0.425714 37.6904 -0.425713 33.5794 1.27713L17.1589 8.07872C13.0478 9.78156 9.78158 13.0478 8.07873 17.1588L1.27714 33.5792C-0.425718 37.6903 -0.425719 42.3094 1.27714 46.4205L8.07873 62.8409C9.78158 66.952 13.0478 70.2182 17.1589 71.921L33.5794 78.7226C37.6904 80.4255 42.3095 80.4255 46.4206 78.7226L62.8411 71.921C66.9522 70.2182 70.2184 66.952 71.9213 62.8409L78.7228 46.4205C80.4257 42.3094 80.4257 37.6903 78.7228 33.5792L71.9213 17.1588C70.2184 13.0478 66.9522 9.78156 62.8411 8.07872L46.4206 1.27713ZM24.617 54.3176V59.7415L33.8639 59.4255V53.0012C33.8639 50.7193 33.8814 48.3496 33.9164 45.8922C35.948 43.9965 37.9094 42.1008 39.8009 40.2051C40.7816 42.4167 41.7448 44.6811 42.6905 46.9981C43.6362 49.315 44.4944 51.5794 45.265 53.791C46.0706 55.9676 46.7536 57.9686 47.314 59.7942C49.2755 59.7942 51.1669 59.7064 52.9883 59.5309C54.8096 59.3904 56.6485 59.1622 58.5049 58.8463C57.349 55.8974 56.0881 52.931 54.7221 49.947C53.3911 46.9278 52.0075 44.0141 50.5714 41.2056C49.1354 38.362 47.7343 35.7466 46.3683 33.3594C50.3613 29.0063 53.8989 24.7409 56.9813 20.5633L49.8359 18.9836C47.1739 23.0558 44.5469 26.8297 41.955 30.3052C39.363 33.7807 36.701 37.0631 33.969 40.1524C34.004 36.5014 34.039 32.9206 34.0741 29.41C34.1441 25.8643 34.2317 22.6872 34.3368 19.8788L24.8797 19.5628C24.8446 20.4756 24.8096 21.8973 24.7746 23.8282C24.7396 25.759 24.7045 28.0058 24.6695 30.5685V38.6253C24.6695 41.4338 24.652 44.1896 24.617 46.8927V54.3176Z" fill="white"/>
</svg>
