<svg width="81" height="81" viewBox="0 0 81 81" fill="none" xmlns="http://www.w3.org/2000/svg">
<path fill-rule="evenodd" clip-rule="evenodd" d="M46.8862 1.74279C42.7751 0.039949 38.156 0.0399501 34.045 1.74279L17.6244 8.54438C13.5134 10.2472 10.2472 13.5134 8.5443 17.6245L1.74272 34.0449C0.0398608 38.156 0.0398603 42.7751 1.74272 46.8862L8.5443 63.3066C10.2472 67.4176 13.5134 70.6838 17.6244 72.3867L34.045 79.1883C38.156 80.8911 42.7751 80.8911 46.8862 79.1883L63.3067 72.3867C67.4178 70.6838 70.684 67.4176 72.3868 63.3066L79.1884 46.8862C80.8913 42.7751 80.8913 38.156 79.1884 34.0449L72.3868 17.6245C70.684 13.5134 67.4178 10.2472 63.3067 8.54438L46.8862 1.74279ZM25.0825 54.7833V60.2072L34.3295 59.8912V53.4668C34.3295 51.1849 34.347 48.8153 34.382 46.3579C36.4136 44.4622 38.375 42.5664 40.2664 40.6707C41.2472 42.8824 42.2104 45.1467 43.1561 47.4637C44.1018 49.7807 44.96 52.045 45.7305 54.2567C46.5361 56.4333 47.2192 58.4343 47.7796 60.2598C49.7411 60.2598 51.6325 60.172 53.4538 59.9965C55.2752 59.8561 57.1141 59.6279 58.9705 59.312C57.8146 56.3631 56.5537 53.3966 55.1876 50.4126C53.8566 47.3935 52.4731 44.4797 51.037 41.6712C49.6009 38.8277 48.1999 36.2123 46.8339 33.8251C50.8269 29.472 54.3645 25.2066 57.4468 21.029L50.3015 19.4492C47.6395 23.5215 45.0125 27.2954 42.4206 30.7709C39.8286 34.2464 37.1666 37.5288 34.4346 40.6181C34.4696 36.9671 34.5046 33.3863 34.5396 29.8757C34.6097 26.33 34.6973 23.1529 34.8023 20.3444L25.3452 20.0285C25.3102 20.9412 25.2752 22.363 25.2402 24.2938C25.2051 26.2247 25.1701 28.4714 25.1351 31.0342V39.091C25.1351 41.8994 25.1176 44.6552 25.0825 47.3584V54.7833Z" fill="#4a3950"/>
</svg>
