<svg width="200" height="200" viewBox="0 0 200 200" fill="none" xmlns="http://www.w3.org/2000/svg">
<path d="M157.501 26.2979L111.456 7.22507C104.121 4.18686 95.8793 4.18686 88.5444 7.22507L42.4986 26.2979C35.1637 29.3361 29.3361 35.1636 26.2979 42.4985L7.22508 88.5444C4.18686 95.8793 4.18686 104.121 7.22507 111.456L26.2979 157.501C29.3361 164.836 35.1636 170.664 42.4985 173.702L88.5444 192.775C95.8793 195.813 104.121 195.813 111.456 192.775L157.501 173.702C164.836 170.664 170.664 164.836 173.702 157.501L192.775 111.456C195.813 104.121 195.813 95.8793 192.775 88.5444L173.702 42.4985C170.664 35.1636 164.836 29.3361 157.501 26.2979Z" fill="#A0FFB4" stroke="white" stroke-width="5.40541"/>
<path d="M64.8365 145.127C64.8365 141.998 64.8365 137.865 64.8365 132.729C64.8365 127.593 64.8365 121.936 64.8365 115.757C64.9166 109.578 64.9566 103.278 64.9566 96.8584C64.9566 90.4386 64.9566 84.2996 64.9566 78.4416C65.0367 72.5835 65.1167 67.4476 65.1968 63.034C65.2768 58.6204 65.3569 55.3704 65.437 53.2839L87.0546 54.0062C86.8144 60.426 86.6143 67.6884 86.4542 75.7934C86.3741 83.8182 86.294 92.0034 86.214 100.349C92.4591 93.2874 98.544 85.7842 104.469 77.8397C110.394 69.8952 116.399 61.2686 122.484 51.9598L138.817 55.571C131.771 65.1205 123.685 74.8705 114.557 84.8212C117.68 90.2781 120.882 96.2565 124.165 102.757C127.448 109.176 130.61 115.837 133.653 122.738C136.775 129.559 139.658 136.34 142.3 143.081C138.056 143.803 133.853 144.325 129.689 144.646C125.526 145.047 121.203 145.248 116.719 145.248C115.438 141.075 113.877 136.501 112.035 131.525C110.274 126.47 108.312 121.294 106.15 115.997C103.988 110.701 101.787 105.525 99.5449 100.47C95.2213 104.803 90.7377 109.136 86.0939 113.47C86.0138 119.087 85.9738 124.504 85.9738 129.72C85.9738 134.936 85.9738 139.831 85.9738 144.405L64.8365 145.127Z" fill="#09373A"/>
</svg>
